<svg width="512" height="512" viewBox="0 0 512 512" fill="none" xmlns="http://www.w3.org/2000/svg">
<g clip-path="url(#clip0_8_173)">
<circle cx="256" cy="256" r="256" fill="#D32F2F"/>
<path fill-rule="evenodd" clip-rule="evenodd" d="M394.882 234.128C390.079 242.28 392.795 252.782 400.947 257.584C409.099 262.386 419.601 259.671 424.403 251.519C429.205 243.367 426.49 232.865 418.338 228.063C410.186 223.26 399.684 225.976 394.882 234.128ZM390.296 275.664C383.83 271.854 378.901 266.433 375.719 260.212L316.512 270.997C316.485 274.552 316.143 278.157 315.462 281.782C309.117 315.535 276.007 336.995 242.145 330.63C232.311 328.781 223.388 324.769 215.832 319.179L175.522 359.488C180.283 366.953 182.36 376.118 180.588 385.543C176.807 405.656 157.131 418.3 137.169 414.548C117.208 410.796 103.466 391.869 107.247 371.756C111.027 351.644 130.704 338.999 150.665 342.752C154.383 343.45 157.885 344.676 161.098 346.337L202.123 305.312C192.681 292.218 188.36 275.578 191.571 258.493C197.018 229.517 222.189 209.601 250.628 208.571L256.96 155.778C254.444 154.55 252.049 152.967 249.847 151.026C236.615 139.366 235.342 119.187 247.002 105.956C258.663 92.7247 278.841 91.4514 292.073 103.112C305.304 114.772 306.577 134.951 294.917 148.182C289.343 154.506 281.823 158.099 274.046 158.852L267.293 210.145C290.091 215.326 307.627 232.237 313.955 253.229L371.529 242.024C371.656 235.698 373.362 229.317 376.802 223.477C387.486 205.34 410.851 199.298 428.988 209.983C447.125 220.667 453.167 244.032 442.483 262.169C431.798 280.306 408.433 286.348 390.296 275.664ZM159.966 381.666C158.434 389.816 150.2 395.646 141.046 393.925C131.891 392.205 126.337 383.783 127.869 375.633C129.401 367.483 137.634 361.653 146.789 363.374C155.943 365.095 161.498 373.517 159.966 381.666ZM246.797 305.883C267.691 309.81 287.069 296.527 290.715 277.13C294.361 257.733 281.129 238.32 260.236 234.392C239.342 230.465 219.964 243.748 216.318 263.145C212.672 282.542 225.904 301.955 246.797 305.883ZM279.174 134.308C283.172 129.771 282.736 122.853 278.199 118.854C273.662 114.856 266.743 115.293 262.745 119.83C258.747 124.366 259.184 131.285 263.72 135.283C268.257 139.281 275.176 138.845 279.174 134.308Z" fill="white"/>
</g>
<defs>
<clipPath id="clip0_8_173">
<rect width="512" height="512" fill="white"/>
</clipPath>
</defs>
</svg>
